# xmcd
# 
# Track frame offsets:
#     150
#     16290
#     26893
#     45365
#     56931
#     65197
#     76041
#     106660
#     120554
#     132672
#     142571
#     151842
#     165665
#     176871
#     188926
#     194495
#     202432
#     209698
#     224465
# 
# Disc length: 3173
# 
# Revision: 1
# Processed by: cddbd v1.5.2PL0 Copyright (c) Steve Scherf et al.
# Submitted via: fre:ac v1.0.31
# 
DISCID=200c6313
DTITLE=Bob Dylan - The Bootleg Series, Vol. 15  Travelin' Thru 1967-1969 Disc 2CD  2
DYEAR=2019
DGENRE=Rock/Pop
TTITLE0=I Still Miss Someone [Take 5]
TTITLE1=Don't Think Twice, It's All Right - Understand Your Man [Rehearsal]
TTITLE2=One Too Many Mornings [Take 3]
TTITLE3=Mountain Dew [Take 1]
TTITLE4=Mountain Dew [Take 2]
TTITLE5=I Still Miss Someone [Take 2]
TTITLE6=Careless Love [Take 1]
TTITLE7=Matchbox [Take 1]
TTITLE8=That's All Right, Mama [Take 1]
TTITLE9=Mystery Train - This Train Is Bound for Glory [Take 1]
TTITLE10=Big River [Take 1]
TTITLE11=Girl from the North Country [Rehearsal]
TTITLE12=Girl from the North Country [Take 1]
TTITLE13=I Walk the Line [Take 2]
TTITLE14=Guess Things Happen That Way [Rehearsal]
TTITLE15=Guess Things Happen That Way [Take 3]
TTITLE16=Five Feet High and Rising [Take 1]
TTITLE17=You Are My Sunshine [Take 1]
TTITLE18=Ring of Fire [Take 1]
EXTD=
EXTT0=
EXTT1=
EXTT2=
EXTT3=
EXTT4=
EXTT5=
EXTT6=
EXTT7=
EXTT8=
EXTT9=
EXTT10=
EXTT11=
EXTT12=
EXTT13=
EXTT14=
EXTT15=
EXTT16=
EXTT17=
EXTT18=
PLAYORDER=
